# File created by Blade
# Date/Time:  Wed Sep 24 19:10:19 2014
# Frame Rate: 120.000 fps
#------------------------------------------------------
:FULLY-SPECIFIED
:DEGREES
1541
root -9.029052 32.980702 -4.420825 7.137032 24.836332 11.982675
Spine -1.724646 3.995581 -7.123950
Head 1.104933 -0.117999 5.900565
LeftShoulder -4.406659 10.396920 16.779511
LeftArm 27.930794 -19.728740 -66.262463
LeftForeArm 2.661106 -0.000000 58.767569
LeftHand -34.056625 -0.000000 49.069659
LeftHandThumb1 -26.253704 0.000000 33.147579
RightShoulder -16.024282 10.919486 -17.141526
RightArm -15.438064 -26.570207 90.694828
RightForeArm -21.924119 0.000000 25.869799
RightHand -5.217509 0.000000 9.039841
RightHandThumb1 -24.326973 -0.000000 -32.862282
LeftUpLeg -98.832657 19.548497 -15.793360
LeftLeg 116.681628 -0.000000 -0.000000
LeftFoot 36.048583 12.867617 -20.925034
LeftToeBase 3.080020 -0.000000 -0.000000
RightUpLeg -10.920824 -16.016883 -1.685247
RightLeg 18.954319 -0.000000 -0.000000
RightFoot -14.206970 -23.587830 -4.688094
RightToeBase 0.252413 -0.000000 -0.000000
1542
root -9.023262 32.983018 -4.414934 7.144949 24.751406 11.951936
Spine -1.751120 4.011113 -7.109627
Head 1.179902 -0.054131 5.910703
LeftShoulder -4.410619 10.290315 16.754780
LeftArm 27.728705 -19.825485 -66.189131
LeftForeArm 2.623056 -0.000000 58.742045
LeftHand -34.032297 0.000000 49.216226
LeftHandThumb1 -26.253704 0.000000 33.147579
RightShoulder -16.003740 10.910352 -17.117795
RightArm -15.417757 -26.541703 90.650576
RightForeArm -21.923100 -0.000000 25.879017
RightHand -5.270486 0.000000 8.845023
RightHandThumb1 -24.326973 -0.000000 -32.862282
LeftUpLeg -98.841469 19.612636 -15.455839
LeftLeg 118.107397 -0.000000 -0.000000
LeftFoot 36.391975 12.442767 -20.739600
LeftToeBase 3.097617 -0.000000 -0.000000
RightUpLeg -10.933219 -15.952643 -1.662218
RightLeg 18.929035 -0.000000 -0.000000
RightFoot -14.154998 -23.599173 -4.723900
RightToeBase 0.231345 -0.000000 -0.000000
1543
root -9.013253 32.987753 -4.409746 7.158403 24.668213 11.972118
Spine -1.760950 4.043992 -7.154921
Head 1.257987 -0.005151 5.951182
LeftShoulder -4.360934 10.410063 16.767979
LeftArm 27.736206 -20.043617 -66.253045
LeftForeArm 2.584691 -0.000000 58.727892
LeftHand -34.007786 -0.000000 49.309836
LeftHandThumb1 -26.253704 0.000000 33.147579
RightShoulder -15.994773 10.898550 -17.076678
RightArm -15.406694 -26.516306 90.605049
RightForeArm -21.935512 -0.000000 25.893210
RightHand -5.291598 -0.000000 8.826228
RightHandThumb1 -24.326973 -0.000000 -32.862282
LeftUpLeg -98.724600 19.678578 -15.006801
LeftLeg 119.710736 -0.000000 -0.000000
LeftFoot 36.651968 11.257011 -20.411200
LeftToeBase 4.116777 -0.000000 -0.000000
RightUpLeg -10.923034 -15.873316 -1.699812
RightLeg 18.897127 -0.000000 -0.000000
RightFoot -14.114838 -23.620712 -4.741038
RightToeBase 0.220949 -0.000000 -0.000000
1544
root -9.001299 32.993562 -4.404843 7.177572 24.603217 12.014288
Spine -1.772926 4.047830 -7.213085
Head 1.345597 0.034020 5.980125
LeftShoulder -4.325380 10.433429 16.745187
LeftArm 27.645054 -20.179870 -66.177623
LeftForeArm 2.506567 -0.000000 58.693067
LeftHand -34.030174 -0.000000 49.429469
LeftHandThumb1 -26.253704 0.000000 33.147579
RightShoulder -15.986031 10.898019 -17.054128
RightArm -15.395499 -26.482361 90.583945
RightForeArm -21.965135 0.000000 25.858580
RightHand -5.291679 -0.000000 8.796177
RightHandThumb1 -24.326973 -0.000000 -32.862282
LeftUpLeg -98.595544 19.699192 -14.627068
LeftLeg 121.397595 -0.000000 -0.000000
LeftFoot 37.004893 10.830214 -20.446263
LeftToeBase 3.932667 -0.000000 -0.000000
RightUpLeg -10.912986 -15.803586 -1.759062
RightLeg 18.879673 -0.000000 -0.000000
RightFoot -14.072903 -23.665882 -4.750053
RightToeBase 0.197618 -0.000000 -0.000000
